# xmcd CD database file
#
# Track frame offsets:
#	150
#	11863
#	23527
#	39440
#	54254
#	70218
#	81882
#	92595
#	101933
#	120009
#	133485
#	150323
#	170574
#	182387
#	194813
#	207376
#	219314
#
# Disc length: 3171 seconds
#
# Revision: 0
# Processed by: cddbd v1.5PL3 Copyright (c) Steve Scherf et al.
# Submitted via: CDex 1.51
#
DISCID=e20c6111
DTITLE=Sojiro - Heart Obtained  Vol 02
DYEAR=1991
DGENRE=New Age
TTITLE0=Town of Flower 
TTITLE1=from  the flower which leaves
TTITLE2=Thought of Summer
TTITLE3=Rain of Jogashima
TTITLE4=Song of Beach
TTITLE5=This Way
TTITLE6=Flower or
TTITLE7=(Japanese Title)
TTITLE8=I am Scolded
TTITLE9=Fruit of Coconut
TTITLE10=Beach 1000 bird
TTITLE11=Moon of Run-down Castle
TTITLE12=Red Dragonfly
TTITLE13=It was Found in Small Autumn.
TTITLE14=also with a dead tree
TTITLE15=Russian Stove
TTITLE16=A mother's song
EXTD=YEAR: 1991
EXTT0=
EXTT1=
EXTT2=
EXTT3=
EXTT4=
EXTT5=
EXTT6=
EXTT7=
EXTT8=
EXTT9=
EXTT10=
EXTT11=
EXTT12=
EXTT13=
EXTT14=
EXTT15=
EXTT16=
PLAYORDER=
